<svg xmlns="http://www.w3.org/2000/svg" xmlns:xlink="http://www.w3.org/1999/xlink" width="1491.774" height="1430.067" viewBox="0 0 1491.774 1430.067">
  <defs>
    <linearGradient id="linear-gradient" y1="0.5" x2="1" y2="0.5" gradientUnits="objectBoundingBox">
      <stop offset="0" stop-color="#fff"/>
      <stop offset="1" stop-color="#fff" stop-opacity="0.302"/>
    </linearGradient>
  </defs>
  <g id="undraw_launch_day_4e04" transform="translate(0 0)" opacity="0.04">
    <path id="Caminho_257" data-name="Caminho 257" d="M1410.239,852.623c-188.316,284.954-276.886,618.445-618.443,618.445S173.351,1194.18,173.351,852.623,481.978,377.966,791.8,234.18C1798.1-232.851,1831.6,215.026,1410.239,852.623Z" transform="translate(-173.351 -41)" fill="#3f3d56"/>
    <circle id="Elipse_49" data-name="Elipse 49" cx="115.721" cy="115.721" r="115.721" transform="translate(1054.77 49.002)" fill="#e6e6e6"/>
    <circle id="Elipse_50" data-name="Elipse 50" cx="13.279" cy="13.279" r="13.279" transform="translate(1145.829 71.767)" fill="#cbcbcb"/>
    <circle id="Elipse_51" data-name="Elipse 51" cx="13.279" cy="13.279" r="13.279" transform="translate(1168.595 204.561)" fill="#cbcbcb"/>
    <circle id="Elipse_52" data-name="Elipse 52" cx="9.485" cy="9.485" r="9.485" transform="translate(1223.609 134.37)" fill="#cbcbcb"/>
    <circle id="Elipse_53" data-name="Elipse 53" cx="30.353" cy="30.353" r="30.353" transform="translate(1094.609 143.855)" fill="#cbcbcb"/>
    <circle id="Elipse_54" data-name="Elipse 54" cx="18.971" cy="18.971" r="18.971" transform="translate(753.137 324.078)" fill="#00478f"/>
    <circle id="Elipse_55" data-name="Elipse 55" cx="18.971" cy="18.971" r="18.971" transform="translate(1261.55 373.401)" fill="#00478f"/>
    <circle id="Elipse_56" data-name="Elipse 56" cx="11.382" cy="11.382" r="11.382" transform="translate(1043.387 417.033)" fill="#e6e6e6"/>
    <circle id="Elipse_57" data-name="Elipse 57" cx="11.382" cy="11.382" r="11.382" transform="translate(166.943 775.579)" fill="#e6e6e6"/>
    <circle id="Elipse_58" data-name="Elipse 58" cx="11.382" cy="11.382" r="11.382" transform="translate(840.401 1081.007)" fill="#e6e6e6"/>
    <path id="Caminho_258" data-name="Caminho 258" d="M595.708,438.261l-5.68,5.643-5.643-5.682-3.787,3.762,5.642,5.682-5.682,5.642,3.762,3.789L590,451.454l5.643,5.682,3.787-3.762-5.643-5.682,5.682-5.642Z" transform="translate(434.402 327.9)" fill="#00478f"/>
    <path id="Caminho_259" data-name="Caminho 259" d="M164.914,544.605l-5.682,5.642-5.642-5.682-3.788,3.762,5.643,5.682-5.682,5.641,3.762,3.789,5.68-5.643,5.643,5.682,3.788-3.762-5.643-5.68,5.682-5.643Z" transform="translate(112.061 407.47)" fill="#e6e6e6"/>
    <path id="Caminho_260" data-name="Caminho 260" d="M190.957,355.792l-5.682,5.642-5.642-5.68-3.788,3.76,5.643,5.682-5.682,5.643,3.762,3.787,5.68-5.642,5.643,5.68,3.788-3.761-5.643-5.682,5.682-5.643Z" transform="translate(131.548 266.192)" fill="#e6e6e6"/>
    <path id="Caminho_261" data-name="Caminho 261" d="M758.477,155.044l-5.682,5.642-5.642-5.68-3.788,3.76,5.643,5.682-5.682,5.643,3.762,3.787,5.682-5.642,5.642,5.68,3.788-3.76-5.643-5.682,5.682-5.643Z" transform="translate(556.194 115.983)" fill="#e6e6e6"/>
    <path id="Caminho_262" data-name="Caminho 262" d="M502.388,245.109l-5.682,5.643-5.643-5.682-3.787,3.762,5.642,5.68-5.68,5.643,3.76,3.789,5.682-5.643,5.643,5.682,3.787-3.762-5.642-5.682,5.68-5.642Z" transform="translate(364.575 183.374)" fill="#e6e6e6"/>
    <path id="Caminho_263" data-name="Caminho 263" d="M693.232,522.755l57.641-67.48,57.641-67.48L841.052,349.7c1.8-2.108-.978-5.4-2.778-3.288L780.634,413.9l-57.641,67.48-32.539,38.093c-1.8,2.108.978,5.4,2.778,3.288Z" transform="translate(213.134 187.018)" opacity="0.8" fill="url(#linear-gradient)"/>
    <path id="Caminho_264" data-name="Caminho 264" d="M634.636,661.651l57.641-67.48,57.641-67.48L782.457,488.6c1.8-2.108-.978-5.4-2.778-3.288l-57.641,67.48L664.4,620.27l-32.539,38.094c-1.8,2.108.978,5.4,2.778,3.288Z" transform="translate(169.289 290.947)" opacity="0.8" fill="url(#linear-gradient)"/>
    <path id="Caminho_265" data-name="Caminho 265" d="M293.526,331.322H401.659v42.55a27.642,27.642,0,0,1-27.642,27.642h-52.85a27.642,27.642,0,0,1-27.642-27.642Z" transform="translate(219.631 247.911)" fill="#2f2e41"/>
    <path id="Caminho_266" data-name="Caminho 266" d="M645.156,937.649c-24.624,24.948-49.286,25.115-73.985.8L552.2,770.707,538.92,938.8c-24.683,19.977-47.685,22.667-68.294.742-19.66-145.236-30.347-280.164-13.28-383.208L421.3,410.263l81.574-37.941c16.427,40.635-9.481,61.418,49.106,60.723,58.07-.69,53.734-22.534,51.439-60.723l75.041,28.862a26.893,26.893,0,0,1,15.991,33.2L656.539,554.44C671.134,615.046,656.148,783.637,645.156,937.649Z" transform="translate(12.178 206.911)" fill="#e6e6e6"/>
    <path id="Caminho_267" data-name="Caminho 267" d="M518.266,846.634s-60.56,5.3-68.673,1.964h0q-.768-.316-1.5-.688c-12.056-6.156-12.424-23.4-1.156-30.9l23.9-15.909L449.972,689.178l80.625.948Z" transform="translate(25.244 443.998)" fill="#2f2e41"/>
    <path id="Caminho_268" data-name="Caminho 268" d="M513.529,847.177s60.56,5.3,68.673,1.964h0q.768-.316,1.5-.688c12.057-6.156,12.424-23.4,1.155-30.9l-23.9-15.909,29.406-111.926H505.942Z" transform="translate(75.51 444.405)" fill="#2f2e41"/>
    <path id="Caminho_269" data-name="Caminho 269" d="M453.256,675.594l12,48.016a28.934,28.934,0,0,1-12.589,31.462h0a28.934,28.934,0,0,1-44.248-21.334l-2.594-24-9.485-228.068a95.94,95.94,0,0,1,59.193-88.624l18.586-7.707Z" transform="translate(-6.497 216.654)" fill="#e6e6e6"/>
    <path id="Caminho_270" data-name="Caminho 270" d="M634.723,480.592l-.057,1.347L627,666.029l-1.479,35.57-.285,7.057-2.6,24a28.934,28.934,0,1,1-56.836-10.13l12.008-48.015-.266-3.566-1.594-22.31L556.943,384.258l18.591,7.7a96.08,96.08,0,0,1,59.189,88.631Z" transform="translate(113.671 215.842)" fill="#e6e6e6"/>
    <path id="Caminho_271" data-name="Caminho 271" d="M548.522,570.974c-68.911,0-111.419-23.9-112.021-24.245l1.9-3.287c.847.489,86.1,48.311,211.353,6.858l1.193,3.6a324.991,324.991,0,0,1-102.421,17.072Z" transform="translate(23.55 334.952)" fill="#2f2e41"/>
    <path id="Caminho_272" data-name="Caminho 272" d="M468.067,740.011c-15.165-34.123-15.242-182.433-15.238-188.73l3.794,0c0,1.534.07,153.794,14.912,187.185Z" transform="translate(35.768 340.817)" fill="#2f2e41"/>
    <path id="Caminho_273" data-name="Caminho 273" d="M483.723,669.384c-13.509,0-22.485-2.877-28.337-6.177-10.654-6.008-12.852-14.195-12.94-14.539l3.676-.941-1.838.47,1.835-.48c.077.287,2,7.1,11.3,12.279,10.244,5.7,30.865,9.948,70.907-2.16l1.1,3.631C510.258,667.262,495.321,669.384,483.723,669.384Z" transform="translate(27.999 412.976)" fill="#2f2e41"/>
    <rect id="Ret창ngulo_23" data-name="Ret창ngulo 23" width="3.795" height="297.489" transform="matrix(0.999, -0.049, 0.049, 0.999, 474.047, 597.512)" fill="#2f2e41"/>
    <path id="Caminho_274" data-name="Caminho 274" d="M536.631,740.011l-3.468-1.541C548,705.079,548.077,552.818,548.075,551.285l3.794,0C551.873,557.578,551.8,705.889,536.631,740.011Z" transform="translate(95.878 340.817)" fill="#2f2e41"/>
    <path id="Caminho_275" data-name="Caminho 275" d="M550.194,669.384c-11.6,0-26.531-2.119-45.7-7.916l1.1-3.631C545.635,669.944,566.25,665.7,576.5,660c9.3-5.176,11.221-11.992,11.3-12.279l3.674.95c-.089.345-2.286,8.531-12.941,14.539C572.678,666.507,563.7,669.384,550.194,669.384Z" transform="translate(74.427 412.976)" fill="#2f2e41"/>
    <rect id="Ret창ngulo_24" data-name="Ret창ngulo 24" width="297.489" height="3.795" transform="translate(643.973 894.465) rotate(-87.202)" fill="#2f2e41"/>
    <path id="Caminho_276" data-name="Caminho 276" d="M402,367.131,373.77,408.865H313.064l-20.3-41.734h8.916l15.177,34.147h51.22l24.662-34.147Z" transform="translate(219.063 274.705)" fill="#00478f"/>
    <path id="Caminho_277" data-name="Caminho 277" d="M394.443,379.067l.493.986-.493.911Z" transform="translate(295.142 283.636)"/>
    <path id="Caminho_278" data-name="Caminho 278" d="M628.562,471.254l-.057,1.347-35.987,10.453-22.272-44.543,22.784-41.773A95.821,95.821,0,0,1,628.562,471.254Z" transform="translate(123.625 225.18)" fill="#00478f"/>
    <path id="Caminho_279" data-name="Caminho 279" d="M395.01,471.254l.057,1.347,35.987,10.453,22.272-44.543-22.784-41.773A95.822,95.822,0,0,0,395.01,471.254Z" transform="translate(-7.495 225.18)" fill="#00478f"/>
    <circle id="Elipse_59" data-name="Elipse 59" cx="100.545" cy="100.545" r="100.545" transform="translate(466.678 409.446)" fill="#e6e6e6"/>
    <circle id="Elipse_60" data-name="Elipse 60" cx="73.986" cy="73.986" r="73.986" transform="translate(493.237 449.283)" fill="#2f2e41"/>
    <path id="Caminho_280" data-name="Caminho 280" d="M447.019,511.878l-1.54,35.57-48.657-26.142-1.262-4.516L393.9,494.481Z" transform="translate(294.735 369.995)" fill="#00478f"/>
    <path id="Caminho_281" data-name="Caminho 281" d="M226.324,511.878l1.619,35.57,51.142-26.142,1.329-4.516,1.743-22.309Z" transform="translate(169.347 369.995)" fill="#00478f"/>
    <path id="Caminho_282" data-name="Caminho 282" d="M382.272,433.863h-62.9l-34.827-71.591-1.79-25.75,3.785-.262,1.739,25.014,33.469,68.794h58.51l42.92-63.444,9.136-28.012,3.61,1.175-9.455,28.743Z" transform="translate(211.57 251.606)" fill="#2f2e41"/>
  </g>
</svg>
